<mxfile host="app.diagrams.net" modified="2023-11-14T14:29:50.416Z" agent="Mozilla/5.0 (Windows NT 10.0; Win64; x64) AppleWebKit/537.36 (KHTML, like Gecko) Chrome/119.0.0.0 Safari/537.36" etag="Y6UzgkFTTTBSXgFvge3H" version="22.1.0" type="device">
  <diagram id="kgpKYQtTHZ0yAKxKKP6v" name="Page-1">
    <mxGraphModel dx="1332" dy="480" grid="1" gridSize="10" guides="1" tooltips="1" connect="1" arrows="1" fold="1" page="1" pageScale="1" pageWidth="850" pageHeight="1100" math="0" shadow="0">
      <root>
        <mxCell id="0" />
        <mxCell id="1" parent="0" />
        <mxCell id="1rYxMRe_m1wBD9LGmmaj-11" style="edgeStyle=orthogonalEdgeStyle;rounded=0;orthogonalLoop=1;jettySize=auto;html=1;dashed=1;endArrow=none;endFill=0;" parent="1" source="1rYxMRe_m1wBD9LGmmaj-10" edge="1">
          <mxGeometry relative="1" as="geometry">
            <mxPoint x="95" y="1070" as="targetPoint" />
          </mxGeometry>
        </mxCell>
        <mxCell id="1rYxMRe_m1wBD9LGmmaj-10" value="User" style="shape=umlActor;verticalLabelPosition=bottom;verticalAlign=top;html=1;" parent="1" vertex="1">
          <mxGeometry x="80" y="400" width="30" height="60" as="geometry" />
        </mxCell>
        <mxCell id="1rYxMRe_m1wBD9LGmmaj-12" value="View" style="shape=umlLifeline;perimeter=lifelinePerimeter;container=1;collapsible=0;recursiveResize=0;rounded=0;shadow=0;strokeWidth=1;" parent="1" vertex="1">
          <mxGeometry x="285" y="410" width="95" height="640" as="geometry" />
        </mxCell>
        <mxCell id="v-QebPua1ZWwUlzsEAZD-3" value="" style="html=1;points=[];perimeter=orthogonalPerimeter;" parent="1rYxMRe_m1wBD9LGmmaj-12" vertex="1">
          <mxGeometry x="45" y="90" width="10" height="520" as="geometry" />
        </mxCell>
        <mxCell id="hJmJOb5RnIDIGOAp77hd-7" value="2. deleteTeam()" style="html=1;verticalAlign=bottom;endArrow=block;entryX=-0.006;entryY=0.051;entryDx=0;entryDy=0;entryPerimeter=0;" parent="1rYxMRe_m1wBD9LGmmaj-12" target="hJmJOb5RnIDIGOAp77hd-2" edge="1">
          <mxGeometry width="80" relative="1" as="geometry">
            <mxPoint x="55" y="160" as="sourcePoint" />
            <mxPoint x="220" y="161" as="targetPoint" />
          </mxGeometry>
        </mxCell>
        <mxCell id="hJmJOb5RnIDIGOAp77hd-21" value="6.4 return invalid view" style="html=1;verticalAlign=bottom;endArrow=open;dashed=1;endSize=8;exitX=-0.074;exitY=0.603;exitDx=0;exitDy=0;exitPerimeter=0;" parent="1rYxMRe_m1wBD9LGmmaj-12" source="hJmJOb5RnIDIGOAp77hd-2" edge="1">
          <mxGeometry relative="1" as="geometry">
            <mxPoint x="215" y="370" as="sourcePoint" />
            <mxPoint x="55" y="370" as="targetPoint" />
          </mxGeometry>
        </mxCell>
        <mxCell id="hJmJOb5RnIDIGOAp77hd-6" value="1. Click Button Delete Team" style="html=1;verticalAlign=bottom;endArrow=block;entryX=0.027;entryY=0.057;entryDx=0;entryDy=0;entryPerimeter=0;" parent="1" target="v-QebPua1ZWwUlzsEAZD-3" edge="1">
          <mxGeometry width="80" relative="1" as="geometry">
            <mxPoint x="100" y="530" as="sourcePoint" />
            <mxPoint x="260" y="530" as="targetPoint" />
          </mxGeometry>
        </mxCell>
        <mxCell id="hJmJOb5RnIDIGOAp77hd-10" value="3. deleteTeam()" style="html=1;verticalAlign=bottom;endArrow=block;entryX=-0.017;entryY=0.091;entryDx=0;entryDy=0;entryPerimeter=0;exitX=0.863;exitY=0.136;exitDx=0;exitDy=0;exitPerimeter=0;" parent="1" source="hJmJOb5RnIDIGOAp77hd-2" target="hJmJOb5RnIDIGOAp77hd-3" edge="1">
          <mxGeometry x="0.0031" width="80" relative="1" as="geometry">
            <mxPoint x="440" y="600" as="sourcePoint" />
            <mxPoint x="575" y="600" as="targetPoint" />
            <mxPoint as="offset" />
          </mxGeometry>
        </mxCell>
        <mxCell id="hJmJOb5RnIDIGOAp77hd-23" value="Invalid infor" style="text;html=1;strokeColor=none;fillColor=none;align=center;verticalAlign=middle;whiteSpace=wrap;rounded=0;" parent="1" vertex="1">
          <mxGeometry x="150" y="740" width="40" height="20" as="geometry" />
        </mxCell>
        <mxCell id="1rYxMRe_m1wBD9LGmmaj-13" value=":Controller" style="shape=umlLifeline;perimeter=lifelinePerimeter;container=1;collapsible=0;recursiveResize=0;rounded=0;shadow=0;strokeWidth=1;" parent="1" vertex="1">
          <mxGeometry x="425" y="410" width="100" height="660" as="geometry" />
        </mxCell>
        <mxCell id="hJmJOb5RnIDIGOAp77hd-2" value="" style="html=1;points=[];perimeter=orthogonalPerimeter;" parent="1rYxMRe_m1wBD9LGmmaj-13" vertex="1">
          <mxGeometry x="45" y="140" width="10" height="380" as="geometry" />
        </mxCell>
        <mxCell id="hJmJOb5RnIDIGOAp77hd-20" value="6.3 return invalid view" style="html=1;verticalAlign=bottom;endArrow=open;dashed=1;endSize=8;" parent="1rYxMRe_m1wBD9LGmmaj-13" edge="1">
          <mxGeometry relative="1" as="geometry">
            <mxPoint x="195" y="349.57000000000005" as="sourcePoint" />
            <mxPoint x="60" y="350" as="targetPoint" />
          </mxGeometry>
        </mxCell>
        <mxCell id="1rYxMRe_m1wBD9LGmmaj-14" value=":Service" style="shape=umlLifeline;perimeter=lifelinePerimeter;container=1;collapsible=0;recursiveResize=0;rounded=0;shadow=0;strokeWidth=1;" parent="1" vertex="1">
          <mxGeometry x="565" y="410" width="105" height="660" as="geometry" />
        </mxCell>
        <mxCell id="hJmJOb5RnIDIGOAp77hd-3" value="" style="html=1;points=[];perimeter=orthogonalPerimeter;" parent="1rYxMRe_m1wBD9LGmmaj-14" vertex="1">
          <mxGeometry x="45" y="160" width="10" height="340" as="geometry" />
        </mxCell>
        <mxCell id="hJmJOb5RnIDIGOAp77hd-26" value="" style="endArrow=none;dashed=1;html=1;rounded=0;entryX=0.001;entryY=0.412;entryDx=0;entryDy=0;entryPerimeter=0;" parent="1rYxMRe_m1wBD9LGmmaj-14" target="hJmJOb5RnIDIGOAp77hd-17" edge="1">
          <mxGeometry width="50" height="50" relative="1" as="geometry">
            <mxPoint x="575" y="380" as="sourcePoint" />
            <mxPoint x="-505" y="380" as="targetPoint" />
          </mxGeometry>
        </mxCell>
        <mxCell id="hJmJOb5RnIDIGOAp77hd-30" value="7.3 return invalid view" style="html=1;verticalAlign=bottom;endArrow=open;dashed=1;endSize=8;" parent="1rYxMRe_m1wBD9LGmmaj-14" edge="1">
          <mxGeometry relative="1" as="geometry">
            <mxPoint x="45" y="480" as="sourcePoint" />
            <mxPoint x="-85" y="480" as="targetPoint" />
          </mxGeometry>
        </mxCell>
        <mxCell id="hJmJOb5RnIDIGOAp77hd-31" value="7.4 return invalid view" style="html=1;verticalAlign=bottom;endArrow=open;dashed=1;endSize=8;" parent="1rYxMRe_m1wBD9LGmmaj-14" edge="1">
          <mxGeometry relative="1" as="geometry">
            <mxPoint x="-95" y="500" as="sourcePoint" />
            <mxPoint x="-225" y="500" as="targetPoint" />
          </mxGeometry>
        </mxCell>
        <mxCell id="1rYxMRe_m1wBD9LGmmaj-15" value=":Repository" style="shape=umlLifeline;perimeter=lifelinePerimeter;container=1;collapsible=0;recursiveResize=0;rounded=0;shadow=0;strokeWidth=1;" parent="1" vertex="1">
          <mxGeometry x="695" y="410" width="145" height="660" as="geometry" />
        </mxCell>
        <mxCell id="hJmJOb5RnIDIGOAp77hd-4" value="" style="html=1;points=[];perimeter=orthogonalPerimeter;" parent="1rYxMRe_m1wBD9LGmmaj-15" vertex="1">
          <mxGeometry x="67.5" y="190" width="10" height="270" as="geometry" />
        </mxCell>
        <mxCell id="hJmJOb5RnIDIGOAp77hd-15" value="4. save()" style="html=1;verticalAlign=bottom;endArrow=block;exitX=1.14;exitY=0.219;exitDx=0;exitDy=0;exitPerimeter=0;entryX=-0.25;entryY=0.148;entryDx=0;entryDy=0;entryPerimeter=0;" parent="1rYxMRe_m1wBD9LGmmaj-15" target="hJmJOb5RnIDIGOAp77hd-4" edge="1">
          <mxGeometry x="0.0031" width="80" relative="1" as="geometry">
            <mxPoint x="-75.00000000000011" y="229.9999999999999" as="sourcePoint" />
            <mxPoint x="65" y="230" as="targetPoint" />
            <mxPoint as="offset" />
          </mxGeometry>
        </mxCell>
        <mxCell id="hJmJOb5RnIDIGOAp77hd-28" value="7.2 return invalid view" style="html=1;verticalAlign=bottom;endArrow=open;dashed=1;endSize=8;" parent="1rYxMRe_m1wBD9LGmmaj-15" edge="1">
          <mxGeometry relative="1" as="geometry">
            <mxPoint x="65" y="450" as="sourcePoint" />
            <mxPoint x="-75" y="450" as="targetPoint" />
          </mxGeometry>
        </mxCell>
        <mxCell id="hJmJOb5RnIDIGOAp77hd-16" value="5. excuteUpdate()" style="html=1;verticalAlign=bottom;endArrow=block;exitX=0.991;exitY=0.251;exitDx=0;exitDy=0;exitPerimeter=0;entryX=0.077;entryY=0.099;entryDx=0;entryDy=0;entryPerimeter=0;" parent="1" source="hJmJOb5RnIDIGOAp77hd-4" target="hJmJOb5RnIDIGOAp77hd-5" edge="1">
          <mxGeometry x="0.0031" width="80" relative="1" as="geometry">
            <mxPoint x="825" y="660" as="sourcePoint" />
            <mxPoint x="985" y="661" as="targetPoint" />
            <mxPoint as="offset" />
          </mxGeometry>
        </mxCell>
        <mxCell id="1rYxMRe_m1wBD9LGmmaj-16" value="Database" style="shape=umlLifeline;perimeter=lifelinePerimeter;container=1;collapsible=0;recursiveResize=0;rounded=0;shadow=0;strokeWidth=1;" parent="1" vertex="1">
          <mxGeometry x="890" y="410" width="270" height="650" as="geometry" />
        </mxCell>
        <mxCell id="hJmJOb5RnIDIGOAp77hd-5" value="" style="html=1;points=[];perimeter=orthogonalPerimeter;" parent="1rYxMRe_m1wBD9LGmmaj-16" vertex="1">
          <mxGeometry x="130" y="240" width="10" height="190" as="geometry" />
        </mxCell>
        <mxCell id="hJmJOb5RnIDIGOAp77hd-18" value="6.1 return invalid view" style="html=1;verticalAlign=bottom;endArrow=open;dashed=1;endSize=8;" parent="1rYxMRe_m1wBD9LGmmaj-16" edge="1">
          <mxGeometry relative="1" as="geometry">
            <mxPoint x="130" y="310" as="sourcePoint" />
            <mxPoint x="-117.5" y="310" as="targetPoint" />
          </mxGeometry>
        </mxCell>
        <mxCell id="hJmJOb5RnIDIGOAp77hd-27" value="7.1 return invalid view" style="html=1;verticalAlign=bottom;endArrow=open;dashed=1;endSize=8;" parent="1rYxMRe_m1wBD9LGmmaj-16" edge="1">
          <mxGeometry relative="1" as="geometry">
            <mxPoint x="130" y="420" as="sourcePoint" />
            <mxPoint x="-117.5" y="420" as="targetPoint" />
          </mxGeometry>
        </mxCell>
        <mxCell id="hJmJOb5RnIDIGOAp77hd-19" value="6.2 return invalid view" style="html=1;verticalAlign=bottom;endArrow=open;dashed=1;endSize=8;" parent="1" edge="1">
          <mxGeometry relative="1" as="geometry">
            <mxPoint x="760" y="729.6400000000001" as="sourcePoint" />
            <mxPoint x="620" y="730" as="targetPoint" />
            <mxPoint as="offset" />
          </mxGeometry>
        </mxCell>
        <mxCell id="hJmJOb5RnIDIGOAp77hd-32" value="8 display message delete sucsess" style="html=1;verticalAlign=bottom;endArrow=open;dashed=1;endSize=8;" parent="1" edge="1">
          <mxGeometry relative="1" as="geometry">
            <mxPoint x="330" y="990" as="sourcePoint" />
            <mxPoint x="100" y="990" as="targetPoint" />
          </mxGeometry>
        </mxCell>
        <mxCell id="hJmJOb5RnIDIGOAp77hd-17" value="validate delete" style="shape=umlFrame;whiteSpace=wrap;html=1;width=160;height=30;" parent="1" vertex="1">
          <mxGeometry x="50" y="680" width="1090" height="280" as="geometry" />
        </mxCell>
        <mxCell id="hJmJOb5RnIDIGOAp77hd-33" value="Valid infor" style="text;html=1;strokeColor=none;fillColor=none;align=center;verticalAlign=middle;whiteSpace=wrap;rounded=0;" parent="1" vertex="1">
          <mxGeometry x="150" y="900" width="40" height="20" as="geometry" />
        </mxCell>
      </root>
    </mxGraphModel>
  </diagram>
</mxfile>
